<?xml version="1.0" encoding="utf-8"?>
<!-- Generator: Adobe Illustrator 22.0.1, SVG Export Plug-In . SVG Version: 6.00 Build 0)  -->
<svg version="1.1" id="Capa_1" xmlns="http://www.w3.org/2000/svg" xmlns:xlink="http://www.w3.org/1999/xlink" x="0px" y="0px"
	 viewBox="0 0 512 512" style="enable-background:new 0 0 512 512;" xml:space="preserve">
<style type="text/css">
	.st0{fill:#595959;}
	.st1{fill:#D7B6C6;}
</style>
<g>
	<path class="st0" d="M162.4,238.1L364.7,34.6c0.6-0.6,1.2-1.2,1.8-1.7C403.6,0,459.2-7.8,479.3,12.4c30.3,30.3,20.7,58.6,1,81.3
		l-152.8,154c-15.3,12-8.9,19.7,3.3,30.8l148.5,147.6c11.1,13.3,20,53.3-5,74.6c-27.8,19.6-68.2,11.4-88.5-0.6
		c-20.3-4-144.5-138.3-224.1-216.9C148.8,271.5,148.1,250.3,162.4,238.1z"/>
</g>
<g>
	<path class="st1" d="M313.1,248.6L477.8,82.3c1.2-1.2,2.1-2.5,2.9-4c21.5-41.3-4.4-66.1-26.1-68.2c-51.7-4.9-92.7,39.4-98.4,45.1
		L172.6,238.1c-13.9,17.2-9.8,31.2,0.8,44.3L372,481c40.1,32.4,79.2,26.4,90.9,16.9c30.1-24.4,16.9-56.9,7-70L313.1,271.3
		C306.9,265.1,306.8,254.9,313.1,248.6z"/>
</g>
</svg>
