<?xml version="1.0" encoding="utf-8"?>
<!-- Generator: Adobe Illustrator 22.0.1, SVG Export Plug-In . SVG Version: 6.00 Build 0)  -->
<svg version="1.1" id="Capa_1" xmlns="http://www.w3.org/2000/svg" xmlns:xlink="http://www.w3.org/1999/xlink" x="0px" y="0px"
	 viewBox="0 0 512 512" style="enable-background:new 0 0 512 512;" xml:space="preserve">
<style type="text/css">
	.st0{fill:#595959;}
	.st1{fill:#D7B6C6;}
</style>
<g>
	<path class="st0" d="M335.5,233.6L135.2,28.8c-0.6-0.6-1.2-1.2-1.8-1.7C96.3-5.8,44.7-8.3,24.5,11.9c-30.3,30.3-12.8,71.4-6.2,77.9
		l153.1,154c11.7,14.2,2.5,25.4-11.9,39.8L12.1,429.4C6.5,435,2.8,442.2,1.7,450c-3.6,25.6,8.1,43.7,21.7,56.6
		c7.5,7.1,67.3,16.8,94.8-8l219.4-219.3C350.5,267.7,349.8,245.9,335.5,233.6z"/>
</g>
<g>
	<path class="st1" d="M328.4,236.3L125,30.6c-0.5-0.5-1-1-1.6-1.5C91.2,0.6,46.4-1.5,28.9,16C2.6,42.4,17.8,78,23.5,83.7l152,150.7
		c12.5,12.4,12.6,32.7,0.1,45.2L19.8,434.8c-4.9,4.8-8.1,11.1-9,17.9c-3.2,22.2,7,37.9,18.9,49.1c6.5,6.2,58.4,14.6,82.2-6.9
		l218.2-219C341.4,265.8,340.8,246.9,328.4,236.3z"/>
</g>
</svg>
